<svg width="23" height="25" viewBox="0 0 23 25" fill="none" xmlns="http://www.w3.org/2000/svg">
<path d="M18.1802 21.3176C18.1802 21.6176 17.8796 21.863 17.5121 21.863H4.81984C4.45243 21.863 4.15182 21.6176 4.15182 21.3176C4.15182 21.0176 4.45243 20.7722 4.81984 20.7722H17.5121C17.8796 20.7722 18.1802 21.0176 18.1802 21.3176ZM22.2885 23.881C21.7874 24.3446 21.0526 24.59 20.3178 24.59H2.68219C1.94737 24.59 1.21255 24.3446 0.71154 23.881C0.210528 23.4174 -0.0566788 22.8175 0.0101228 22.2175L1.81377 5.99202C1.84717 5.71932 2.14777 5.50116 2.48178 5.50116H5.82186V4.68307C5.82186 2.11971 8.36032 0.0472107 11.5 0.0472107C14.6397 0.0472107 17.1781 2.11971 17.1781 4.68307V5.50116H20.5182C20.8522 5.50116 21.1528 5.71932 21.1862 5.99202L22.9899 22.2175C23.0567 22.8175 22.7895 23.4174 22.2885 23.881ZM7.1579 5.50116H15.8421V4.68307C15.8421 2.71965 13.9049 1.138 11.5 1.138C9.09514 1.138 7.1579 2.71965 7.1579 4.68307V5.50116ZM21.6538 22.2993L19.917 6.59195H17.1781V8.50083C17.1781 8.8008 16.8775 9.04623 16.5101 9.04623C16.1427 9.04623 15.8421 8.8008 15.8421 8.50083V6.59195H7.1579V8.50083C7.1579 8.8008 6.85729 9.04623 6.48988 9.04623C6.12247 9.04623 5.82186 8.8008 5.82186 8.50083V6.59195H3.083L1.34615 22.2993C1.31275 22.5993 1.44636 22.8993 1.68016 23.1447C1.91397 23.3901 2.28138 23.4992 2.68219 23.4992H20.3512C20.7186 23.4992 21.086 23.3628 21.3532 23.1447C21.587 22.9265 21.6872 22.6266 21.6538 22.2993Z" fill="black"/>
</svg>
