<svg width="149" height="154" viewBox="0 0 149 154" fill="none" xmlns="http://www.w3.org/2000/svg">
<g clip-path="url(#clip0)">
<path d="M126.688 72.1382C116.492 62.1969 105.531 60.1577 100.178 59.9027L101.197 57.3537L135.355 53.785C141.472 53.785 146.571 48.6869 146.571 42.5692V30.5886C146.571 29.0592 145.551 28.0396 144.022 28.0396H128.217V11.2158H140.453C141.982 11.2158 143.002 10.1962 143.002 8.66678C143.002 7.13735 141.982 6.11773 140.453 6.11773H128.217V2.54905C128.217 1.01962 127.198 0 125.668 0C124.139 0 123.119 1.01962 123.119 2.54905V6.11773H110.884C109.354 6.11773 108.335 7.13735 108.335 8.66678C108.335 10.1962 109.354 11.2158 110.884 11.2158H123.119V28.0396H25.4905V11.2158H37.726C39.2554 11.2158 40.275 10.1962 40.275 8.66678C40.275 7.13735 39.2554 6.11773 37.726 6.11773H25.4905V2.54905C25.4905 1.01962 24.4709 0 22.9415 0C21.4121 0 20.3924 1.01962 20.3924 2.54905V6.11773H8.15697C6.62754 6.11773 5.60792 7.13735 5.60792 8.66678C5.60792 10.1962 6.62754 11.2158 8.15697 11.2158H20.3924V28.0396H4.33339C2.80396 28.0396 1.78434 29.0592 1.78434 30.5886V42.5692C1.78434 48.6869 6.88245 53.785 13.0002 53.785L47.4124 57.3537L48.432 59.9027C43.079 60.4126 32.1181 62.4518 21.9219 72.1382C2.54906 90.7463 -0.764713 123.884 0.254908 150.649C0.254908 151.924 1.52944 153.198 2.80396 153.198C4.33339 153.198 5.35301 151.924 5.35301 150.649C5.09811 145.806 5.09811 141.218 5.35301 136.629L5.60792 131.276C7.13735 105.786 13.51 87.1776 25.2356 75.9618C35.4318 66.0205 46.6477 65.0009 50.2164 65.0009L51.236 67.8048C52.5105 71.8833 56.0792 74.9422 60.4126 74.9422H87.9423C92.2757 74.9422 96.0993 72.1382 97.1189 68.0597L98.1386 65.0009C101.452 65.0009 112.668 66.0205 122.864 75.9618C134.335 87.1776 141.218 106.041 142.747 131.276L143.002 136.374C143.257 140.963 143.257 145.551 143.002 150.394C143.002 151.924 144.022 152.943 145.551 152.943C146.825 152.943 148.1 151.924 148.1 150.394C149.12 123.884 145.806 90.7463 126.688 72.1382ZM102.472 32.8828H114.962V39.5103H102.472V32.8828ZM33.3926 32.8828H45.883V39.5103H33.3926V32.8828ZM96.864 54.2948L92.2757 66.7852C91.7659 68.8244 89.9816 70.099 87.9423 70.099H60.4126C58.3733 70.099 56.589 68.8244 56.0792 66.5303L51.7458 54.2948C51.4909 53.2752 50.4713 52.7654 49.7065 52.5105C12.2355 48.432 13.51 48.6869 13.2551 48.6869C9.94131 48.6869 7.13735 45.883 7.13735 42.5692V33.1377H28.2945V42.3143C28.2945 43.8437 29.3141 44.8633 30.8436 44.8633H48.432C49.9614 44.8633 50.9811 43.8437 50.9811 42.3143V33.1377H97.3738V42.3143C97.3738 43.8437 98.3935 44.8633 99.9229 44.8633H117.511C119.041 44.8633 120.06 43.8437 120.06 42.3143V33.1377H141.218V42.5692C141.218 46.1379 138.414 48.6869 135.1 48.6869C134.845 48.6869 137.139 48.432 98.9033 52.5105C97.8837 52.5105 97.1189 53.2752 96.864 54.2948Z" fill="black"/>
<path d="M133.571 136.884H14.5297C12.4905 136.884 10.9611 135.355 10.9611 133.315V119.041C10.9611 117.002 12.4905 115.472 14.5297 115.472H133.825C135.865 115.472 137.394 117.002 137.394 119.041V133.315C137.139 135.355 135.61 136.884 133.571 136.884Z" fill="black"/>
<path d="M76.2167 87.4325C76.2167 89.4718 71.8833 89.4718 71.8833 91.511C71.8833 93.5502 76.2167 93.5502 76.2167 95.5895C76.2167 97.6287 71.8833 97.6287 71.8833 99.668C71.8833 101.707 76.2167 101.707 76.2167 103.746C76.2167 105.786 71.8833 105.786 71.8833 107.825" stroke="#1D1D1B" stroke-miterlimit="10" stroke-linecap="round"/>
<path d="M92.0209 87.4325C92.0209 89.4718 87.6875 89.4718 87.6875 91.511C87.6875 93.5502 92.0209 93.5502 92.0209 95.5895C92.0209 97.6287 87.6875 97.6287 87.6875 99.668C87.6875 101.707 92.0209 101.707 92.0209 103.746C92.0209 105.786 87.6875 105.786 87.6875 107.825" stroke="#1D1D1B" stroke-miterlimit="10" stroke-linecap="round"/>
<path d="M60.6675 87.4325C60.6675 89.4718 56.3341 89.4718 56.3341 91.511C56.3341 93.5502 60.6675 93.5502 60.6675 95.5895C60.6675 97.6287 56.3341 97.6287 56.3341 99.668C56.3341 101.707 60.6675 101.707 60.6675 103.746C60.6675 105.786 56.3341 105.786 56.3341 107.825" stroke="#1D1D1B" stroke-miterlimit="10" stroke-linecap="round"/>
</g>
<defs>
<clipPath id="clip0">
<rect width="148.1" height="153.198" fill="white"/>
</clipPath>
</defs>
</svg>
